<svg xmlns="http://www.w3.org/2000/svg" viewBox="0 0 64 80" x="0px" y="0px"><title>Boat-sail-sailboat-sea</title><path d="M28.413,2.19a1,1,0,0,0-.39,1.027l2.364,10.636A61.9,61.9,0,0,1,29.046,45.7,1,1,0,0,0,30,47c.035,0,.069,0,.1-.005l19-2a1,1,0,0,0,.859-.725A34.892,34.892,0,0,0,34.176,4.9L29.51,2.14A1,1,0,0,0,28.413,2.19Zm4.743,4.435A32.887,32.887,0,0,1,48.213,43.077L31.389,44.848a63.926,63.926,0,0,0,.951-31.429L30.478,5.038Z"/><path d="M2.191,53.412a1,1,0,0,0-.171.784L2.8,58.1l-.659-.094-.284,1.98,2.4.343a18.286,18.286,0,0,0,9.472-1.163L13.9,59.1a16.438,16.438,0,0,1,10.435-.675l.133.034a18.327,18.327,0,0,0,9.441-.044l2.479-.674a15.8,15.8,0,0,1,11.761,1.381l1.793.978a10.144,10.144,0,0,0,7.566.886A6.1,6.1,0,0,0,55.9,49h-.253l.266-.586a1,1,0,0,0-.1-1,1.01,1.01,0,0,0-.923-.405l-52,6A1,1,0,0,0,2.191,53.412ZM55.9,51a4.1,4.1,0,0,1,1.081,8.061,8.139,8.139,0,0,1-5.674-.513l.606-1.334a4.378,4.378,0,0,0,2.5.786H55a3,3,0,0,0,0-6v2a1,1,0,0,1,0,2h-.586a2.388,2.388,0,0,1-1.651-.662L54.734,51Zm-2.54-1.8-3.822,8.411-.434-.236a17.786,17.786,0,0,0-13.244-1.556l-2.478.674a16.325,16.325,0,0,1-8.41.039l-.133-.034a18.41,18.41,0,0,0-11.695.757l-.163.066A16.29,16.29,0,0,1,4.9,58.392l-.7-3.523Z"/><path d="M14.271,43.76,12.132,47.5A1,1,0,0,0,13,49c.03,0,.061,0,.091,0l11-1a1,1,0,0,0,.8-.549,46.884,46.884,0,0,0,3.153-33.922l-1.086-3.8a1,1,0,0,0-1.941.071l-2.59,12.435A73.568,73.568,0,0,1,14.271,43.76ZM26.152,14.172a44.882,44.882,0,0,1-2.8,31.883l-8.532.776,1.188-2.079A75.511,75.511,0,0,0,24.388,22.64Z"/><text x="0" y="79" fill="#000000" font-size="5px" font-weight="bold" font-family="'Helvetica Neue', Helvetica, Arial-Unicode, Arial, Sans-serif">Created by Turkkub</text><text x="0" y="84" fill="#000000" font-size="5px" font-weight="bold" font-family="'Helvetica Neue', Helvetica, Arial-Unicode, Arial, Sans-serif">from the Noun Project</text></svg>