<svg xmlns="http://www.w3.org/2000/svg" data-name="Layer 1" viewBox="0 0 100 125" x="0px" y="0px"><title>weather icon set</title><path d="M20.47,84.5H65.33a17.47,17.47,0,0,0,10.1-31.73A13.56,13.56,0,0,0,54.73,36.3a24.4,24.4,0,0,0-17.88-3.22c-9,1.79-16.28,8.36-18.5,16.59A17.48,17.48,0,0,0,20.47,84.5ZM63.2,37.32a9.57,9.57,0,0,1,8.71,13.52l-.08,0c-.45-.18-.92-.34-1.39-.49l-.32-.09c-.44-.13-.88-.24-1.33-.33l-.16,0c-.49-.09-1-.16-1.47-.22l-.35,0c-.5,0-1-.07-1.51-.07H64c-.12-.56-.27-1.12-.43-1.67-.05-.18-.12-.35-.18-.53-.12-.37-.25-.74-.4-1.1-.08-.2-.16-.39-.25-.59s-.3-.67-.47-1l-.3-.57c-.18-.34-.38-.67-.58-1-.1-.16-.2-.33-.3-.49q-.43-.66-.91-1.28l-.09-.13c-.36-.46-.74-.89-1.13-1.32l-.38-.38c-.21-.21-.41-.43-.62-.63A9.49,9.49,0,0,1,63.2,37.32ZM10.94,57.49A13.47,13.47,0,0,1,20,53.55a2,2,0,0,0,1.9-1.62c1.4-7.34,7.71-13.34,15.7-14.92a21.61,21.61,0,0,1,4.19-.41,19.79,19.79,0,0,1,11.87,3.84,16.48,16.48,0,0,1,6.47,10.08c.08.41.15.83.19,1.24a2,2,0,0,0,2,1.79h3a13.59,13.59,0,0,1,2.28.21c.35.06.71.11,1.06.2l.24.08a13.12,13.12,0,0,1,1.35.44c.26.1.51.24.77.36s.51.22.75.35A13.48,13.48,0,0,1,65.33,80.5H20.47a13.48,13.48,0,0,1-9.53-23Z"/><path d="M49.88,29.06a2,2,0,1,0,3.55-1.83l-3.86-7.47A2,2,0,0,0,46,21.59Z"/><path d="M63.09,27.9h.05a2,2,0,0,0,1.95-2.05l-.22-8.41a2,2,0,0,0-2.05-1.95,2,2,0,0,0-1.95,2.05L61.09,26A2,2,0,0,0,63.09,27.9Z"/><path d="M73,29.07a2,2,0,0,0,2.7-.84l3.92-7.44a2,2,0,0,0-3.54-1.86l-3.92,7.44A2,2,0,0,0,73,29.07Z"/><path d="M79.23,34.83A2,2,0,0,0,81.8,36l7.89-2.92a2,2,0,1,0-1.39-3.75l-7.89,2.92A2,2,0,0,0,79.23,34.83Z"/><path d="M84.61,43.27a2,2,0,0,0,1.86,2.13l8.39.56H95a2,2,0,0,0,.13-4l-8.39-.56A2,2,0,0,0,84.61,43.27Z"/><path d="M84.59,52.31a2,2,0,1,0-2.18,3.35l7.05,4.58a2,2,0,0,0,2.18-3.35Z"/><text x="0" y="115" fill="#000000" font-size="5px" font-weight="bold" font-family="'Helvetica Neue', Helvetica, Arial-Unicode, Arial, Sans-serif">Created by fajar hasyim</text><text x="0" y="120" fill="#000000" font-size="5px" font-weight="bold" font-family="'Helvetica Neue', Helvetica, Arial-Unicode, Arial, Sans-serif">from the Noun Project</text></svg>