<svg xmlns="http://www.w3.org/2000/svg" viewBox="0 0 64 80" x="0px" y="0px"><g><path d="M34,43a3,3,0,0,0-6,0,1,1,0,0,1-2,0,5,5,0,1,1,5,5H21a1,1,0,0,1,0-2H31A3.0033,3.0033,0,0,0,34,43Zm11-5a7.0081,7.0081,0,0,0-7,7,1,1,0,0,0,2,0,5,5,0,1,1,5,5H13a1,1,0,0,0,0,2H45a7,7,0,0,0,0-14ZM13,48h4a1,1,0,0,0,0-2H13a1,1,0,0,0,0,2ZM60,27a7.0081,7.0081,0,0,1-7,7H15a11,11,0,0,1,0-22c.2373,0,.48.01.7354.03a14.9787,14.9787,0,0,1,27.46,2.1543A8.8726,8.8726,0,0,1,45,14a8.9807,8.9807,0,0,1,8.4844,6.0166A7.0093,7.0093,0,0,1,60,27Zm-2,0a5.0059,5.0059,0,0,0-5-5c-.1338.0068-.1953.01-.26.01a.9993.9993,0,0,1-.9687-.753A6.9824,6.9824,0,0,0,45,16a6.8432,6.8432,0,0,0-2.165.3486.9987.9987,0,0,1-1.2813-.6909,12.9817,12.9817,0,0,0-24.3271-2.1348,1.0006,1.0006,0,0,1-1.044.5674A8.6212,8.6212,0,0,0,15,14a9,9,0,0,0,0,18H53A5.0059,5.0059,0,0,0,58,27ZM39,54H13a1,1,0,0,0,0,2H39a1,1,0,0,1,0,2,1,1,0,0,0,0,2,3,3,0,0,0,0-6Z"/></g><text x="0" y="79" fill="#000000" font-size="5px" font-weight="bold" font-family="'Helvetica Neue', Helvetica, Arial-Unicode, Arial, Sans-serif">Created by Bartama Graphic</text><text x="0" y="84" fill="#000000" font-size="5px" font-weight="bold" font-family="'Helvetica Neue', Helvetica, Arial-Unicode, Arial, Sans-serif">from the Noun Project</text></svg>