<svg xmlns="http://www.w3.org/2000/svg" viewBox="0 0 48 60" x="0px" y="0px"><title>Transportation vol.1</title><g data-name="Layer 5"><path d="M41.605,9.28174H32.346c-.02442-.00177-.04529-.01416-.07013-.01416s-.04572.01239-.07013.01416H6.395a4.42838,4.42838,0,0,0-4.45557,4.39062V30.49512A4.42838,4.42838,0,0,0,6.395,34.88574H7.64716a4.80889,4.80889,0,0,0,9.42334,0h13.859A4.80417,4.80417,0,0,0,35.606,38.73242a4.85359,4.85359,0,0,0,4.7409-3.84668H41.605a4.42838,4.42838,0,0,0,4.45557-4.39062V13.67236A4.42838,4.42838,0,0,0,41.605,9.28174Zm2.45557,4.39062V24.35889H35.646l-2.37012-2.37012v-10.707H41.605A2.42639,2.42639,0,0,1,44.06055,13.67236ZM31.27588,21.40283H18.76807V11.28174H31.27588ZM6.395,11.28174H16.76807V21.40283H3.93945V13.67236A2.42639,2.42639,0,0,1,6.395,11.28174Zm5.99853,25.45068a2.81649,2.81649,0,0,1-2.84667-2.84668,2.81439,2.81439,0,1,1,2.84667,2.84668Zm23.21241,0a2.81465,2.81465,0,0,1,0-5.6289,2.81464,2.81464,0,1,1,0,5.6289Zm5.999-3.84668h-1.2583a4.68706,4.68706,0,0,0-.26367-.82367c-.03192-.07592-.07611-.14441-.11182-.21832a4.75555,4.75555,0,0,0-.3031-.55017c-.0589-.0896-.127-.1709-.19165-.25623a4.82685,4.82685,0,0,0-.35321-.42224c-.07922-.08288-.16254-.1593-.2475-.23645a4.85228,4.85228,0,0,0-.41351-.33673c-.09424-.06836-.18866-.13391-.2879-.19556a4.84035,4.84035,0,0,0-.47986-.25732c-.1026-.04877-.20246-.09973-.30884-.14148a4.852,4.852,0,0,0-.57568-.17663c-.09577-.02442-.18726-.05713-.28522-.07575a4.89431,4.89431,0,0,0-.91876-.09167,4.76486,4.76486,0,0,0-.90631.09167c-.09638.01862-.18634.05127-.28058.07556a4.74776,4.74776,0,0,0-.56873.17694c-.10473.04163-.20306.09247-.304.14118a4.75589,4.75589,0,0,0-.47376.25757c-.09778.06158-.19086.127-.28369.19531a4.7642,4.7642,0,0,0-.40863.33734c-.0835.0769-.16553.15308-.24335.23566a4.78909,4.78909,0,0,0-.3493.42327c-.0636.085-.13043.166-.18836.25525a4.77943,4.77943,0,0,0-.30011.55231c-.03485.07318-.07794.14093-.10913.21607a4.73113,4.73113,0,0,0-.26031.82409H17.07031a4.73113,4.73113,0,0,0-.26031-.82409c-.03113-.075-.07422-.14258-.109-.2157a4.766,4.766,0,0,0-.30054-.55292c-.05774-.08887-.12426-.16962-.18756-.25433a4.80177,4.80177,0,0,0-.3501-.4242c-.07775-.0824-.1596-.15851-.243-.23523a4.77417,4.77417,0,0,0-.409-.33764c-.09278-.06824-.18573-.13361-.28339-.19513a4.75932,4.75932,0,0,0-.47424-.25775c-.10083-.04865-.199-.09949-.30371-.14106a4.74457,4.74457,0,0,0-.5691-.177c-.09417-.02435-.18414-.05688-.28045-.0755a4.7663,4.7663,0,0,0-.90644-.09167,4.89554,4.89554,0,0,0-.91882.09167c-.09741.01856-.18848.05115-.28375.07538a4.85314,4.85314,0,0,0-.57739.17718c-.10584.04151-.20508.09223-.30713.14069a4.82813,4.82813,0,0,0-.48163.2583c-.09869.06128-.19269.12653-.28638.19452a4.83364,4.83364,0,0,0-.41522.33826c-.08435.07666-.1673.15258-.246.23492a4.81061,4.81061,0,0,0-.3548.42413c-.06427.08478-.13177.16559-.19031.25458a4.75192,4.75192,0,0,0-.30365.55115c-.03564.07379-.07965.142-.11145.21771a4.68625,4.68625,0,0,0-.26373.82373H6.395a2.42639,2.42639,0,0,1-2.45557-2.39062V23.40283H31.86182l2.66308,2.66309a1.00014,1.00014,0,0,0,.707.293h8.82862v4.13623A2.42639,2.42639,0,0,1,41.605,32.88574Z"/></g><text x="0" y="63" fill="#000000" font-size="5px" font-weight="bold" font-family="'Helvetica Neue', Helvetica, Arial-Unicode, Arial, Sans-serif">Created by Muhammad Fahmi</text><text x="0" y="68" fill="#000000" font-size="5px" font-weight="bold" font-family="'Helvetica Neue', Helvetica, Arial-Unicode, Arial, Sans-serif">from the Noun Project</text></svg>