<svg xmlns="http://www.w3.org/2000/svg" xmlns:xlink="http://www.w3.org/1999/xlink" viewBox="0 0 24 30" version="1.1" xml:space="preserve" style="" x="0px" y="0px" fill-rule="evenodd" clip-rule="evenodd" stroke-linejoin="round" stroke-miterlimit="1.41421"><path d="M17.849,3.972c0.105,0.01 0.208,0.029 0.311,0.051c0.109,0.023 0.217,0.045 0.325,0.074c0.113,0.031 0.225,0.067 0.334,0.11c0.407,0.158 0.779,0.396 1.119,0.672c0.214,0.172 0.421,0.354 0.593,0.572c0.216,0.275 0.384,0.589 0.512,0.916c0.104,0.266 0.183,0.544 0.223,0.828c0.018,0.127 0.028,0.255 0.025,0.384c-0.003,0.131 -0.018,0.263 -0.035,0.393c-0.024,0.191 -0.056,0.381 -0.097,0.568c-0.08,0.36 -0.191,0.713 -0.376,1.031c-0.058,0.093 -0.119,0.184 -0.179,0.276c-0.14,0.214 -0.28,0.428 -0.421,0.641c-0.11,0.163 -0.221,0.325 -0.336,0.485l-0.036,0.049c0.028,0.049 0.055,0.098 0.082,0.147l0.04,0.077c0.051,0.123 0.096,0.247 0.132,0.375c0.106,0.371 0.152,0.757 0.168,1.142c0.006,0.146 0.008,0.291 0.007,0.437c-0.001,0.055 -0.008,0.157 -0.004,0.203c0.004,0.03 0.008,0.06 0.013,0.09c0.028,0.147 0.074,0.29 0.126,0.429c0.069,0.182 0.15,0.359 0.233,0.535c0.11,0.225 0.223,0.448 0.337,0.671c0.061,0.122 0.121,0.245 0.181,0.367c0.055,0.11 0.111,0.22 0.165,0.33c0.092,0.193 0.171,0.39 0.219,0.599c0.093,0.406 0.08,0.828 0.054,1.241l-0.243,2.336c-0.026,0.114 -0.057,0.226 -0.104,0.333c-0.111,0.253 -0.296,0.461 -0.531,0.598c-0.128,0.075 -0.265,0.123 -0.407,0.165l-0.899,0.033c-0.084,-0.016 -0.166,-0.033 -0.246,-0.06c-0.147,-0.048 -0.286,-0.122 -0.403,-0.226c-0.158,-0.141 -0.266,-0.329 -0.325,-0.533c-0.025,-0.085 -0.039,-0.171 -0.053,-0.259c-0.012,-0.076 -0.024,-0.151 -0.027,-0.228c-0.007,-0.16 0.016,-0.32 0.079,-0.467c0.071,-0.17 0.191,-0.312 0.33,-0.428c0.034,-0.028 0.069,-0.055 0.106,-0.081c0.03,-0.022 0.065,-0.039 0.091,-0.066c0.011,-0.013 0.02,-0.027 0.029,-0.042c0.029,-0.057 0.045,-0.121 0.054,-0.185c0.015,-0.104 0.014,-0.209 0.008,-0.313l-0.033,-0.756c-0.12,-0.047 -0.239,-0.096 -0.358,-0.146c-0.107,-0.046 -0.214,-0.094 -0.321,-0.142c-0.256,-0.121 -0.507,-0.25 -0.745,-0.407c-0.074,-0.067 -0.147,-0.134 -0.22,-0.202c-0.347,-0.335 -0.671,-0.696 -0.94,-1.1c-0.077,-0.117 -0.15,-0.237 -0.216,-0.361c-0.042,-0.077 -0.078,-0.158 -0.121,-0.234c-0.021,-0.036 -0.043,-0.071 -0.067,-0.104c-0.039,-0.05 -0.082,-0.096 -0.136,-0.13c-0.081,-0.052 -0.177,-0.074 -0.271,-0.085c-0.132,-0.016 -0.266,-0.011 -0.399,-0.006l-0.061,0.004l-0.083,0.005l-1.632,0.585c-0.071,0.031 -0.142,0.06 -0.213,0.088c-0.08,0.03 -0.16,0.058 -0.24,0.085c-0.583,0.188 -1.186,0.301 -1.797,0.328l-0.082,0.003l-0.039,0c-0.021,0.069 -0.039,0.139 -0.057,0.209c-0.081,0.356 -0.116,0.723 -0.044,1.084c0.03,0.151 0.081,0.293 0.139,0.435l0.312,1.654l-0.347,1.304c-0.038,0.076 -0.038,0.076 -0.079,0.149c-0.147,0.247 -0.349,0.455 -0.609,0.574c-0.093,0.043 -0.188,0.069 -0.287,0.092l-1.152,-0.036c-0.059,-0.028 -0.101,-0.046 -0.154,-0.075c-0.09,-0.048 -0.174,-0.105 -0.251,-0.171c-0.237,-0.202 -0.397,-0.485 -0.453,-0.795c-0.011,-0.064 -0.019,-0.129 -0.022,-0.195c-0.001,-0.028 -0.004,-0.057 -0.002,-0.085c0.001,-0.012 0.016,-0.087 0.022,-0.111c0.026,-0.11 0.064,-0.217 0.114,-0.318c0.086,-0.174 0.205,-0.329 0.342,-0.463c0.048,-0.047 0.098,-0.092 0.151,-0.134c0.024,-0.02 0.054,-0.039 0.074,-0.065c0.001,-0.002 0.001,-0.009 0.001,-0.012c0,-0.014 -0.002,-0.028 -0.004,-0.042c-0.011,-0.063 -0.031,-0.122 -0.052,-0.182l-0.009,-0.026l-0.944,-2.256c-0.107,-0.106 -0.213,-0.214 -0.317,-0.322c-0.231,-0.242 -0.457,-0.49 -0.658,-0.759c-0.155,-0.207 -0.296,-0.427 -0.398,-0.666c-0.043,-0.101 -0.079,-0.205 -0.106,-0.312c-0.033,-0.132 -0.054,-0.268 -0.075,-0.402c-0.026,-0.162 -0.048,-0.325 -0.069,-0.488c-0.06,-0.477 -0.102,-0.958 -0.133,-1.438c-0.012,-0.197 -0.02,-0.393 -0.032,-0.589c-0.005,-0.056 -0.005,-0.056 -0.011,-0.111c-0.057,-0.398 -0.178,-0.787 -0.334,-1.155c-0.107,-0.25 -0.231,-0.5 -0.403,-0.709c-0.004,-0.005 -0.023,-0.014 -0.027,-0.016c-0.018,-0.01 -0.037,-0.019 -0.057,-0.027c-0.109,-0.043 -0.227,-0.055 -0.344,-0.062c-0.11,-0.008 -0.221,-0.01 -0.332,-0.012l-1.205,-0.051c-0.137,-0.014 -0.27,-0.043 -0.399,-0.094c-0.085,-0.033 -0.166,-0.074 -0.243,-0.123c-0.059,-0.037 -0.116,-0.078 -0.169,-0.123c-0.412,-0.345 -0.632,-0.878 -0.718,-1.405c-0.043,-0.268 -0.063,-0.55 0.024,-0.812c0.047,-0.137 0.121,-0.262 0.212,-0.372c0.057,-0.069 0.121,-0.129 0.184,-0.191c0.078,-0.03 0.078,-0.031 0.157,-0.058c0.125,-0.041 0.252,-0.072 0.38,-0.1c0.206,-0.042 0.413,-0.08 0.619,-0.122c0.185,-0.04 0.369,-0.085 0.55,-0.141c0.021,-0.007 0.042,-0.015 0.063,-0.025c0.138,-0.074 0.213,-0.227 0.282,-0.363c0.061,-0.127 0.118,-0.255 0.181,-0.381c0.048,-0.093 0.098,-0.183 0.156,-0.269c0.043,-0.064 0.067,-0.093 0.12,-0.162l0.114,-0.065c0.371,-0.196 0.783,-0.297 1.192,-0.371c0.21,-0.038 0.421,-0.067 0.633,-0.09c0.041,-0.005 0.241,-0.026 0.278,-0.027c0.019,-0.001 0.179,0.001 0.206,0.002c0.142,0.003 0.285,0.01 0.427,0.021c0.456,0.037 0.947,0.122 1.316,0.421c0.134,0.108 0.245,0.242 0.335,0.39c0.137,0.228 0.228,0.482 0.334,0.725l0.035,0.078l0.037,0.078c0.443,0.879 0.891,1.756 1.327,2.638c0.072,0.149 0.14,0.299 0.213,0.447c0.025,0.048 0.049,0.094 0.076,0.139c0.03,0.046 0.061,0.09 0.102,0.125c0.045,0.037 0.099,0.063 0.153,0.083c0.069,0.026 0.141,0.044 0.213,0.059c0.146,0.032 0.294,0.052 0.442,0.07c0.137,0.016 0.274,0.03 0.411,0.043c0.139,0.013 0.276,0.025 0.416,0.02c0.278,-0.011 0.553,-0.064 0.825,-0.121c0.277,-0.058 0.553,-0.124 0.83,-0.185c0.123,-0.026 0.123,-0.026 0.247,-0.051c0.356,-0.067 0.714,-0.122 1.077,-0.12c0.107,0.001 0.214,0.006 0.32,0.018c0.088,0.009 0.176,0.024 0.265,0.033c0.225,0.021 0.451,0.03 0.675,0.051c0.343,0.034 0.684,0.095 0.992,0.259l0.022,0.012c0.166,-0.123 0.329,-0.253 0.484,-0.392c0.115,-0.103 0.228,-0.211 0.327,-0.331c0.037,-0.044 0.073,-0.09 0.102,-0.14c0.021,-0.036 0.037,-0.076 0.052,-0.114c0.021,-0.052 0.04,-0.105 0.056,-0.159c0.038,-0.125 0.062,-0.254 0.061,-0.385c0,-0.169 -0.046,-0.331 -0.134,-0.473c-0.047,-0.075 -0.104,-0.143 -0.164,-0.208c-0.235,-0.257 -0.533,-0.445 -0.854,-0.569c-0.127,-0.049 -0.257,-0.092 -0.385,-0.14c-0.069,-0.027 -0.138,-0.056 -0.206,-0.086c-0.137,-0.065 -0.269,-0.141 -0.377,-0.25c-0.039,-0.039 -0.072,-0.082 -0.104,-0.127c-0.017,-0.027 -0.019,-0.025 -0.04,-0.05c-0.011,-0.014 -0.022,-0.029 -0.033,-0.043c-0.058,-0.089 -0.103,-0.181 -0.13,-0.284c-0.07,-0.272 -0.025,-0.576 0.12,-0.814c0.047,-0.076 0.103,-0.146 0.17,-0.204c0.031,-0.028 0.069,-0.056 0.103,-0.08c0.103,-0.077 0.216,-0.143 0.34,-0.177c0.065,-0.018 0.13,-0.026 0.197,-0.029c0.039,-0.001 0.077,0.001 0.115,0.003Zm-11.072,0.571c-0.324,0.033 -0.647,0.076 -0.965,0.147c-0.234,0.053 -0.466,0.118 -0.682,0.223l-0.011,0.006c-0.044,0.063 -0.08,0.13 -0.115,0.198c-0.07,0.14 -0.133,0.283 -0.202,0.423c-0.103,0.197 -0.224,0.385 -0.398,0.524c-0.076,0.061 -0.16,0.111 -0.248,0.15c-0.117,0.05 -0.241,0.081 -0.363,0.113c-0.324,0.085 -0.653,0.14 -0.98,0.207c-0.068,0.015 -0.135,0.03 -0.201,0.048c-0.035,0.009 -0.035,0.009 -0.069,0.02l-0.022,0.007c-0.039,0.043 -0.076,0.091 -0.097,0.146c-0.026,0.067 -0.029,0.142 -0.026,0.213c0.003,0.084 0.013,0.167 0.027,0.249c0.012,0.073 0.026,0.144 0.044,0.215c0.016,0.061 0.035,0.12 0.056,0.179c0.103,0.285 0.285,0.57 0.573,0.683c0.052,0.021 0.107,0.034 0.162,0.043l0.017,0.002c0.488,0.05 0.974,0.04 1.461,0.059c0.081,0.005 0.081,0.005 0.162,0.011c0.097,0.01 0.193,0.021 0.289,0.044c0.123,0.03 0.242,0.076 0.354,0.14c0.033,0.019 0.111,0.066 0.124,0.076c0.023,0.019 0.039,0.043 0.058,0.065c0.027,0.03 0.052,0.061 0.077,0.093c0.122,0.157 0.224,0.329 0.315,0.506c0.139,0.272 0.252,0.557 0.346,0.848c0.102,0.321 0.181,0.65 0.211,0.987c0.012,0.199 0.021,0.399 0.033,0.598c0.048,0.712 0.11,1.426 0.241,2.127c0.005,0.028 0.012,0.056 0.019,0.084c0.081,0.278 0.24,0.522 0.415,0.749c0.213,0.274 0.451,0.526 0.693,0.773l0.071,0.072l0.202,0.201l1.007,2.407c0.081,0.219 0.149,0.456 0.102,0.692c-0.008,0.041 -0.02,0.081 -0.035,0.12c-0.019,0.052 -0.044,0.1 -0.075,0.146c-0.041,0.063 -0.093,0.119 -0.149,0.169c-0.045,0.04 -0.093,0.076 -0.139,0.117c-0.03,0.028 -0.06,0.057 -0.088,0.088c-0.09,0.1 -0.16,0.213 -0.196,0.344l-0.004,0.017c0.01,0.147 0.064,0.288 0.164,0.395c0.044,0.047 0.094,0.084 0.149,0.117l0.014,0.008l0.905,0.029c0.027,-0.009 0.054,-0.019 0.081,-0.032c0.127,-0.067 0.215,-0.177 0.285,-0.303l0.003,-0.006l0.282,-1.06l-0.266,-1.408c-0.023,-0.057 -0.022,-0.057 -0.043,-0.114c-0.027,-0.077 -0.027,-0.077 -0.051,-0.155c-0.043,-0.155 -0.076,-0.31 -0.094,-0.47c-0.041,-0.367 -0.009,-0.738 0.07,-1.097c0.065,-0.298 0.168,-0.583 0.269,-0.871c0.133,0.007 0.266,0.014 0.399,0.018c0.378,0.002 0.754,-0.041 1.124,-0.116c0.376,-0.076 0.744,-0.185 1.097,-0.338l1.748,-0.628c0.194,-0.012 0.388,-0.026 0.582,-0.019c0.147,0.005 0.293,0.022 0.435,0.061c0.261,0.071 0.487,0.233 0.652,0.452c0.052,0.068 0.097,0.141 0.138,0.216c0.047,0.085 0.087,0.174 0.134,0.259c0.032,0.058 0.066,0.114 0.1,0.17c0.208,0.326 0.454,0.623 0.724,0.898c0.107,0.109 0.216,0.217 0.332,0.317c0.012,0.01 0.027,0.017 0.04,0.026c0.054,0.033 0.085,0.052 0.14,0.083c0.109,0.061 0.221,0.118 0.333,0.172c0.384,0.183 0.781,0.334 1.177,0.487c0.018,0.414 0.036,0.827 0.054,1.241c0.002,0.047 0.004,0.094 0.005,0.142c0,0.323 -0.055,0.666 -0.268,0.919c-0.034,0.04 -0.072,0.078 -0.114,0.111c-0.051,0.042 -0.107,0.075 -0.159,0.115c-0.023,0.019 -0.046,0.039 -0.068,0.06c-0.024,0.025 -0.047,0.051 -0.064,0.082c-0.05,0.092 -0.025,0.202 -0.01,0.3c0.021,0.129 0.041,0.271 0.148,0.358c0.028,0.022 0.06,0.04 0.093,0.054c0.041,0.017 0.082,0.028 0.124,0.038l0.729,-0.027c0.155,-0.05 0.294,-0.138 0.373,-0.289c0.029,-0.056 0.049,-0.116 0.064,-0.177l0.002,-0.011l0.238,-2.277c0.006,-0.097 0.01,-0.194 0.014,-0.29c0.005,-0.24 0.002,-0.483 -0.052,-0.718c-0.027,-0.12 -0.07,-0.235 -0.12,-0.347c-0.064,-0.14 -0.134,-0.277 -0.203,-0.414c-0.173,-0.35 -0.352,-0.696 -0.523,-1.047c-0.047,-0.098 -0.092,-0.197 -0.136,-0.296c-0.135,-0.312 -0.257,-0.633 -0.303,-0.973l-0.004,-0.037l-0.005,-0.055c0.003,-0.123 0.006,-0.245 0.005,-0.367c-0.005,-0.478 -0.043,-0.963 -0.206,-1.415l-0.017,-0.044l-0.013,-0.031c-0.042,-0.079 -0.085,-0.157 -0.13,-0.234c-0.071,-0.125 -0.144,-0.25 -0.216,-0.374l0.216,-0.276c0.129,-0.169 0.25,-0.342 0.37,-0.518c0.211,-0.315 0.417,-0.634 0.625,-0.951c0.169,-0.268 0.255,-0.587 0.32,-0.896c0.037,-0.179 0.065,-0.36 0.085,-0.542c0.011,-0.103 0.022,-0.206 0.016,-0.309c-0.015,-0.259 -0.08,-0.513 -0.169,-0.755c-0.115,-0.314 -0.274,-0.62 -0.493,-0.872c-0.083,-0.095 -0.177,-0.178 -0.272,-0.26c-0.321,-0.277 -0.673,-0.525 -1.068,-0.678c-0.178,-0.069 -0.361,-0.111 -0.548,-0.151c-0.06,-0.013 -0.121,-0.025 -0.183,-0.034c-0.032,-0.004 -0.068,-0.01 -0.1,-0.002c-0.034,0.007 -0.066,0.031 -0.094,0.051c-0.025,0.018 -0.052,0.035 -0.074,0.057c-0.045,0.045 -0.063,0.117 -0.065,0.18c-0.001,0.036 0.001,0.085 0.024,0.115l0.002,0.002l0.046,0.043c0.015,0.027 0.027,0.055 0.046,0.078c0.031,0.032 0.07,0.055 0.108,0.076c0.053,0.028 0.109,0.052 0.165,0.074c0.147,0.06 0.299,0.108 0.447,0.165c0.066,0.026 0.131,0.053 0.196,0.083c0.364,0.172 0.696,0.406 0.966,0.713c0.192,0.218 0.347,0.47 0.413,0.759c0.025,0.106 0.041,0.214 0.045,0.324c0.007,0.187 -0.016,0.375 -0.061,0.556c-0.028,0.115 -0.065,0.228 -0.109,0.337c-0.029,0.073 -0.061,0.145 -0.1,0.213c-0.114,0.196 -0.272,0.363 -0.433,0.518c-0.254,0.245 -0.532,0.463 -0.818,0.668l-0.31,0.216c-0.083,-0.073 -0.168,-0.154 -0.257,-0.223c-0.027,-0.019 -0.054,-0.036 -0.083,-0.053c-0.167,-0.088 -0.353,-0.128 -0.538,-0.154c-0.284,-0.039 -0.571,-0.045 -0.856,-0.07c-0.107,-0.012 -0.213,-0.029 -0.321,-0.039c-0.381,-0.029 -0.762,0.024 -1.136,0.097c-0.358,0.07 -0.711,0.158 -1.067,0.234c-0.119,0.025 -0.119,0.025 -0.238,0.048c-0.33,0.059 -0.659,0.102 -0.995,0.085c-0.125,-0.01 -0.249,-0.023 -0.374,-0.035c-0.114,-0.012 -0.164,-0.017 -0.277,-0.03c-0.08,-0.01 -0.162,-0.021 -0.242,-0.033c-0.328,-0.05 -0.677,-0.121 -0.94,-0.342c-0.071,-0.06 -0.134,-0.13 -0.189,-0.205c-0.083,-0.112 -0.147,-0.237 -0.208,-0.362c-0.062,-0.128 -0.121,-0.258 -0.183,-0.386c-0.436,-0.883 -0.885,-1.759 -1.327,-2.639c-0.099,-0.208 -0.183,-0.422 -0.277,-0.632c-0.022,-0.048 -0.045,-0.095 -0.069,-0.141c-0.045,-0.079 -0.095,-0.155 -0.161,-0.216c-0.161,-0.151 -0.387,-0.21 -0.595,-0.248c-0.275,-0.05 -0.556,-0.061 -0.835,-0.066l-0.074,-0.001c-0.036,0.003 -0.071,0.007 -0.106,0.01Zm0.633,1.639c-0.037,0.156 -0.075,0.313 -0.11,0.47c-0.011,0.053 -0.02,0.106 -0.029,0.16c-0.022,0.141 -0.037,0.283 -0.041,0.426c-0.02,0.627 0.142,1.281 0.544,1.765c0.07,0.084 0.146,0.162 0.228,0.233c0.085,0.073 0.177,0.139 0.274,0.197c0.087,0.052 0.178,0.101 0.273,0.135c0.047,0.017 0.096,0.032 0.146,0.036c0.027,0.003 0.057,0.003 0.082,-0.009c0.012,-0.006 0.021,-0.014 0.03,-0.023c0.067,-0.075 0.099,-0.181 0.124,-0.277c0.049,-0.186 0.071,-0.379 0.092,-0.57l0.056,-0.531l0.721,0.079c-0.021,0.206 -0.042,0.413 -0.065,0.619c-0.01,0.086 -0.021,0.172 -0.034,0.257c-0.05,0.317 -0.129,0.656 -0.339,0.904c-0.053,0.063 -0.115,0.118 -0.183,0.163c-0.043,0.029 -0.088,0.053 -0.136,0.072c-0.048,0.02 -0.098,0.035 -0.149,0.046c-0.323,0.064 -0.649,-0.066 -0.926,-0.224c-0.06,-0.034 -0.118,-0.07 -0.175,-0.108c-0.09,-0.06 -0.176,-0.126 -0.258,-0.197c-0.097,-0.083 -0.188,-0.174 -0.272,-0.271c-0.098,-0.111 -0.186,-0.231 -0.264,-0.357c-0.374,-0.598 -0.526,-1.323 -0.492,-2.028c0.011,-0.243 0.046,-0.482 0.098,-0.719l0.099,-0.423c0.236,0.058 0.471,0.116 0.706,0.175Z"/><text x="0" y="39" fill="#000000" font-size="5px" font-weight="bold" font-family="'Helvetica Neue', Helvetica, Arial-Unicode, Arial, Sans-serif">Created by Therk Niënhaus</text><text x="0" y="44" fill="#000000" font-size="5px" font-weight="bold" font-family="'Helvetica Neue', Helvetica, Arial-Unicode, Arial, Sans-serif">from the Noun Project</text></svg>