<svg xmlns="http://www.w3.org/2000/svg" viewBox="0 0 64 80" x="0px" y="0px"><g data-name="Cloud with rain"><path d="M57,22.091V22A10.011,10.011,0,0,0,47,12a10.169,10.169,0,0,0-1.543.118,14.005,14.005,0,0,0-25.288-3.6A10,10,0,0,0,7,18c0,.2,0,.387.017.579a8,8,0,0,0,1.7,15.313A11.025,11.025,0,0,0,18,39a10.9,10.9,0,0,0,5.082-1.247A9,9,0,0,0,37.733,36.6a6.988,6.988,0,0,0,10.985-.577,6.017,6.017,0,0,0,8.564-2.169A5.994,5.994,0,0,0,57,22.091Zm-.511,9.876-.569.069-.228.527a4.018,4.018,0,0,1-6.545,1.25L48.135,32.8l-.6,1.3a4.991,4.991,0,0,1-9.047.036l-1.055-2.253-.8,2.356a7,7,0,0,1-12.45,1.647l-.546-.82-.828.533A8.863,8.863,0,0,1,18,37a9.019,9.019,0,0,1-7.812-4.536l-.258-.452-.517-.048A5.993,5.993,0,0,1,8.358,20.233L9.2,20l-.123-.869A7.917,7.917,0,0,1,9,18a8,8,0,0,1,11.2-7.333l.837.365.44-.8A12,12,0,0,1,43.742,13.5l.217,1.023,1.012-.263A8.012,8.012,0,0,1,55,22a7.292,7.292,0,0,1-.053.879L54.872,24H56a4,4,0,0,1,.489,7.967Z"/><path d="M14,40.811l-.89,1.732C12.615,43.507,11,46.751,11,48a3,3,0,0,0,6,0c0-1.249-1.615-4.493-2.11-5.457ZM14,49a1,1,0,0,1-1-1,11.991,11.991,0,0,1,1-2.7A12.007,12.007,0,0,1,15,48,1,1,0,0,1,14,49Z"/><path d="M21,51.811l-.89,1.732C19.615,54.507,18,57.751,18,59a3,3,0,0,0,6,0c0-1.249-1.615-4.493-2.11-5.457ZM21,60a1,1,0,0,1-1-1,11.991,11.991,0,0,1,1-2.7A12.007,12.007,0,0,1,22,59,1,1,0,0,1,21,60Z"/><path d="M28,43.811l-.89,1.732C26.615,46.507,25,49.751,25,51a3,3,0,0,0,6,0c0-1.249-1.615-4.493-2.11-5.457ZM28,52a1,1,0,0,1-1-1,11.991,11.991,0,0,1,1-2.7A12.007,12.007,0,0,1,29,51,1,1,0,0,1,28,52Z"/><path d="M38.89,41.543,38,39.811l-.89,1.732C36.615,42.507,35,45.751,35,47a3,3,0,0,0,6,0C41,45.751,39.385,42.507,38.89,41.543ZM38,48a1,1,0,0,1-1-1,11.991,11.991,0,0,1,1-2.7A12.007,12.007,0,0,1,39,47,1,1,0,0,1,38,48Z"/><path d="M52,42.811l-.89,1.732C50.615,45.507,49,48.751,49,50a3,3,0,0,0,6,0c0-1.249-1.615-4.493-2.11-5.457ZM52,51a1,1,0,0,1-1-1,11.991,11.991,0,0,1,1-2.7A12.007,12.007,0,0,1,53,50,1,1,0,0,1,52,51Z"/><path d="M44,48.811l-.89,1.732C42.615,51.507,41,54.751,41,56a3,3,0,0,0,6,0c0-1.249-1.615-4.493-2.11-5.457ZM44,57a1,1,0,0,1-1-1,11.991,11.991,0,0,1,1-2.7A12.007,12.007,0,0,1,45,56,1,1,0,0,1,44,57Z"/></g><text x="0" y="79" fill="#000000" font-size="5px" font-weight="bold" font-family="'Helvetica Neue', Helvetica, Arial-Unicode, Arial, Sans-serif">Created by ic2icon</text><text x="0" y="84" fill="#000000" font-size="5px" font-weight="bold" font-family="'Helvetica Neue', Helvetica, Arial-Unicode, Arial, Sans-serif">from the Noun Project</text></svg>